<svg width="30" height="24" viewBox="0 0 30 24" fill="none" xmlns="http://www.w3.org/2000/svg">
<g clip-path="url(#clip0)">
<path d="M28.8777 1.12429C27.3826 -0.37631 24.9561 -0.37631 23.461 1.12429L9.92181 14.7214L6.53456 11.3245C5.03946 9.82393 2.61299 9.82393 1.11789 11.3245C-0.377208 12.8251 -0.377208 15.2618 1.11789 16.7624L7.21103 22.8806C8.70613 24.3812 11.1326 24.3812 12.6277 22.8806L28.8777 6.57182C30.3728 5.06157 30.3728 2.62972 28.8777 1.12429ZM27.5248 5.20632C27.5248 5.20632 11.5297 21.2642 11.2748 21.52C10.5297 22.2727 9.31397 22.2727 8.56887 21.52C8.56887 21.52 2.43652 15.3631 2.41691 15.3438C1.72573 14.5911 1.74534 13.4138 2.47083 12.6852C3.21593 11.9325 4.43162 11.9325 5.17672 12.6852L9.91691 17.4428L24.8189 2.48497C25.564 1.73225 26.7797 1.73225 27.5248 2.48497C28.2699 3.23768 28.2699 4.45361 27.5248 5.20632Z" fill="#D49C6B"/>
</g>
<defs>
<clipPath id="clip0">
<rect width="30" height="24" fill="white"/>
</clipPath>
</defs>
</svg>
